<svg width="64" height="74" viewBox="0 0 64 74" fill="none" xmlns="http://www.w3.org/2000/svg">
<path d="M63.9739 18.7786V44.9078C63.9739 55.2784 55.5339 63.6863 45.1237 63.6863H43.217L33.4805 73.3795C33.0992 73.7594 32.5717 74 31.987 74C31.4467 74 30.9574 73.8037 30.5824 73.4745L30.4172 73.3099L30.4108 73.3036L20.7569 63.6863H18.8439C8.44003 63.6863 0 55.2784 0 44.9078V18.7786C0 8.40794 8.44003 0 18.8503 0H45.1237C55.5339 0 63.9739 8.40794 63.9739 18.7786Z" fill="#FFD666"/>
<path d="M15.2687 30C13.4129 30 12.3551 32.1067 13.4319 33.6278C17.6185 39.5531 24.5414 43.4164 32.3637 43.4164C40.186 43.4164 47.1025 39.5467 51.2892 33.6278C52.3659 32.1067 51.3082 30 49.4524 30H15.2687Z" fill="white"/>
</svg>
