<svg width="233" height="74" viewBox="0 0 233 74" fill="none" xmlns="http://www.w3.org/2000/svg">
<path d="M63.9739 18.7786V44.9078C63.9739 55.2784 55.5339 63.6863 45.1237 63.6863H43.217L33.4805 73.3795C33.0992 73.7594 32.5717 74 31.987 74C31.4467 74 30.9574 73.8037 30.5824 73.4745L30.4172 73.3099L30.4108 73.3036L20.7569 63.6863H18.8439C8.44003 63.6863 0 55.2784 0 44.9078V18.7786C0 8.40794 8.44003 0 18.8503 0H45.1237C55.5339 0 63.9739 8.40794 63.9739 18.7786Z" fill="#FFD666"/>
<path d="M15.2687 30C13.4129 30 12.3551 32.1067 13.4319 33.6278C17.6185 39.5531 24.5414 43.4164 32.3637 43.4164C40.186 43.4164 47.1025 39.5467 51.2892 33.6278C52.3659 32.1067 51.3082 30 49.4524 30H15.2687Z" fill="white"/>
<path d="M108.104 34.48C110.056 35.056 111.56 36.064 112.616 37.504C113.704 38.912 114.248 40.656 114.248 42.736C114.248 45.584 113.192 47.84 111.08 49.504C109 51.168 106.12 52 102.44 52H89.864C88.744 52 87.88 51.696 87.272 51.088C86.664 50.48 86.36 49.616 86.36 48.496V21.664C86.36 20.544 86.664 19.68 87.272 19.072C87.88 18.464 88.744 18.16 89.864 18.16H101.96C105.48 18.16 108.264 18.944 110.312 20.512C112.392 22.08 113.432 24.224 113.432 26.944C113.432 28.704 112.952 30.256 111.992 31.6C111.064 32.912 109.768 33.872 108.104 34.48ZM93.656 31.936H100.712C102.632 31.936 104.04 31.616 104.936 30.976C105.864 30.304 106.328 29.296 106.328 27.952C106.328 26.544 105.864 25.52 104.936 24.88C104.04 24.208 102.632 23.872 100.712 23.872H93.656V31.936ZM101.576 46.288C103.56 46.288 105 45.952 105.896 45.28C106.792 44.608 107.24 43.52 107.24 42.016C107.24 40.512 106.792 39.408 105.896 38.704C105 38 103.56 37.648 101.576 37.648H93.656V46.288H101.576ZM137.934 27.952C139.054 27.952 139.934 28.256 140.574 28.864C141.246 29.472 141.582 30.304 141.582 31.36V48.976C141.582 49.968 141.23 50.768 140.526 51.376C139.854 51.984 138.974 52.288 137.886 52.288C136.862 52.288 136.046 52 135.438 51.424C134.83 50.848 134.526 50.08 134.526 49.12V48.64C133.79 49.856 132.814 50.784 131.598 51.424C130.414 52.064 129.07 52.384 127.566 52.384C124.59 52.384 122.366 51.568 120.894 49.936C119.454 48.272 118.734 45.776 118.734 42.448V31.36C118.734 30.304 119.054 29.472 119.694 28.864C120.366 28.256 121.262 27.952 122.382 27.952C123.502 27.952 124.382 28.256 125.022 28.864C125.662 29.472 125.982 30.304 125.982 31.36V42.592C125.982 44 126.27 45.04 126.846 45.712C127.454 46.384 128.366 46.72 129.582 46.72C130.99 46.72 132.126 46.24 132.99 45.28C133.886 44.32 134.334 43.056 134.334 41.488V31.36C134.334 30.304 134.654 29.472 135.294 28.864C135.934 28.256 136.814 27.952 137.934 27.952ZM156.071 52.384C154.119 52.384 152.423 52.224 150.983 51.904C149.543 51.584 148.279 51.072 147.191 50.368C146.711 50.08 146.343 49.696 146.087 49.216C145.831 48.736 145.703 48.192 145.703 47.584C145.703 46.848 145.911 46.24 146.327 45.76C146.743 45.248 147.255 44.992 147.863 44.992C148.279 44.992 148.695 45.072 149.111 45.232C149.527 45.36 149.959 45.52 150.407 45.712C151.303 46.128 152.183 46.464 153.047 46.72C153.911 46.944 154.983 47.056 156.263 47.056C157.383 47.056 158.247 46.88 158.855 46.528C159.495 46.176 159.815 45.696 159.815 45.088C159.815 44.64 159.671 44.288 159.383 44.032C159.127 43.744 158.631 43.488 157.895 43.264C157.159 43.04 155.991 42.768 154.391 42.448C151.543 41.904 149.495 41.088 148.247 40C146.999 38.912 146.375 37.392 146.375 35.44C146.375 34 146.807 32.704 147.671 31.552C148.567 30.4 149.783 29.504 151.319 28.864C152.855 28.192 154.583 27.856 156.503 27.856C157.879 27.856 159.223 28.032 160.535 28.384C161.847 28.736 163.015 29.232 164.039 29.872C165.031 30.48 165.527 31.376 165.527 32.56C165.527 33.328 165.319 33.968 164.903 34.48C164.487 34.992 163.975 35.248 163.367 35.248C162.631 35.248 161.751 34.96 160.727 34.384C159.927 33.968 159.191 33.664 158.519 33.472C157.879 33.248 157.111 33.136 156.215 33.136C155.223 33.136 154.439 33.328 153.863 33.712C153.287 34.064 152.999 34.56 152.999 35.2C152.999 35.872 153.335 36.384 154.007 36.736C154.679 37.088 155.975 37.44 157.895 37.792C160.039 38.208 161.719 38.72 162.935 39.328C164.151 39.904 165.031 40.64 165.575 41.536C166.119 42.432 166.391 43.568 166.391 44.944C166.391 47.216 165.447 49.024 163.559 50.368C161.703 51.712 159.207 52.384 156.071 52.384ZM192.758 46.384C193.494 47.088 193.862 47.888 193.862 48.784C193.862 49.68 193.526 50.48 192.854 51.184C192.214 51.888 191.462 52.24 190.598 52.24C189.766 52.24 188.998 51.904 188.294 51.232L177.782 41.488V48.832C177.782 49.952 177.43 50.8 176.726 51.376C176.054 51.952 175.206 52.24 174.182 52.24C173.126 52.24 172.246 51.952 171.542 51.376C170.87 50.8 170.534 49.952 170.534 48.832V21.328C170.534 20.208 170.87 19.36 171.542 18.784C172.246 18.208 173.126 17.92 174.182 17.92C175.206 17.92 176.054 18.208 176.726 18.784C177.43 19.36 177.782 20.208 177.782 21.328V38.512L187.382 29.056C188.086 28.352 188.87 28 189.734 28C190.63 28 191.414 28.336 192.086 29.008C192.758 29.648 193.094 30.416 193.094 31.312C193.094 32.144 192.726 32.928 191.99 33.664L185.606 39.76L192.758 46.384ZM215.977 44.992C216.617 44.992 217.129 45.248 217.513 45.76C217.929 46.272 218.137 46.928 218.137 47.728C218.137 48.272 217.977 48.784 217.657 49.264C217.337 49.712 216.889 50.096 216.313 50.416C215.225 50.992 213.961 51.472 212.521 51.856C211.081 52.208 209.753 52.384 208.537 52.384C205.977 52.384 203.737 51.888 201.817 50.896C199.929 49.904 198.473 48.496 197.449 46.672C196.425 44.816 195.913 42.64 195.913 40.144C195.913 37.744 196.409 35.616 197.401 33.76C198.393 31.904 199.769 30.464 201.529 29.44C203.289 28.384 205.289 27.856 207.529 27.856C209.673 27.856 211.545 28.336 213.145 29.296C214.777 30.224 216.041 31.568 216.937 33.328C217.833 35.056 218.281 37.088 218.281 39.424C218.281 40.128 218.105 40.672 217.753 41.056C217.433 41.408 216.969 41.584 216.361 41.584H202.921C203.145 43.472 203.721 44.848 204.649 45.712C205.577 46.544 206.905 46.96 208.633 46.96C209.561 46.96 210.393 46.848 211.129 46.624C211.865 46.4 212.681 46.096 213.577 45.712C214.025 45.52 214.457 45.36 214.873 45.232C215.289 45.072 215.657 44.992 215.977 44.992ZM207.721 32.848C206.345 32.848 205.241 33.296 204.409 34.192C203.577 35.056 203.081 36.32 202.921 37.984H212.185C212.089 36.288 211.657 35.008 210.889 34.144C210.153 33.28 209.097 32.848 207.721 32.848ZM226.307 52.288C225.251 52.288 224.371 52 223.667 51.424C222.995 50.848 222.659 50 222.659 48.88V31.36C222.659 30.24 223.011 29.392 223.715 28.816C224.419 28.24 225.283 27.952 226.307 27.952C227.331 27.952 228.179 28.24 228.851 28.816C229.555 29.392 229.907 30.24 229.907 31.36V48.88C229.907 50 229.555 50.848 228.851 51.424C228.179 52 227.331 52.288 226.307 52.288ZM226.307 24.112C225.027 24.112 224.019 23.792 223.283 23.152C222.547 22.48 222.179 21.584 222.179 20.464C222.179 19.344 222.547 18.464 223.283 17.824C224.019 17.184 225.027 16.864 226.307 16.864C227.555 16.864 228.547 17.2 229.283 17.872C230.051 18.512 230.435 19.376 230.435 20.464C230.435 21.584 230.067 22.48 229.331 23.152C228.595 23.792 227.587 24.112 226.307 24.112Z" fill="white"/>
</svg>
